PathFileType	4	(X/Y/Z)	C:\Users\Basilio\Documents\Thesis Gigler\squatting_fais\c3dfiles\054\SLS_front_pre2\markers_experimental.trc
DataRate	CameraRate	NumFrames	NumMarkers	Units	OrigDataRate	OrigDataStartFrame	OrigNumFrames
200.000000	200.000000	4	61	mm	200.000000	0	1461
Frame#	Time	FHD			LBHD			RBHD			C7			T10			CLAV			LSHO			LUUPA			LMUPA			LDUPA			LLEP			LMEP			LRAD			LUL			LRFIN			RSHO			RUPA1			RMUPA			RDUPA			RLEP			RMEP			RRAD			RUL			RUFIN			LASI			RASI			USACR			LSACR			RSACR			LTHI1			LTHI2			LTHI3			LTHI4			LLFC			LMFC			LTIB1			LTIB2			LTIB3			LTIB4			LLMAL			LMMAL			LHEE			LMT1			LMT2			LMT5			RTHI			RTHI2			RTHI3			RTHI4			RLFC			RMFC			RTIB1			RTIB2			RTIB3			RTIB4			RLMAL			RMMAL			RHEE			RMT1			RMT2			RMT5			
		X1	Y1	Z1	X2	Y2	Z2	X3	Y3	Z3	X4	Y4	Z4	X5	Y5	Z5	X6	Y6	Z6	X7	Y7	Z7	X8	Y8	Z8	X9	Y9	Z9	X10	Y10	Z10	X11	Y11	Z11	X12	Y12	Z12	X13	Y13	Z13	X14	Y14	Z14	X15	Y15	Z15	X16	Y16	Z16	X17	Y17	Z17	X18	Y18	Z18	X19	Y19	Z19	X20	Y20	Z20	X21	Y21	Z21	X22	Y22	Z22	X23	Y23	Z23	X24	Y24	Z24	X25	Y25	Z25	X26	Y26	Z26	X27	Y27	Z27	X28	Y28	Z28	X29	Y29	Z29	X30	Y30	Z30	X31	Y31	Z31	X32	Y32	Z32	X33	Y33	Z33	X34	Y34	Z34	X35	Y35	Z35	X36	Y36	Z36	X37	Y37	Z37	X38	Y38	Z38	X39	Y39	Z39	X40	Y40	Z40	X41	Y41	Z41	X42	Y42	Z42	X43	Y43	Z43	X44	Y44	Z44	X45	Y45	Z45	X46	Y46	Z46	X47	Y47	Z47	X48	Y48	Z48	X49	Y49	Z49	X50	Y50	Z50	X51	Y51	Z51	X52	Y52	Z52	X53	Y53	Z53	X54	Y54	Z54	X55	Y55	Z55	X56	Y56	Z56	X57	Y57	Z57	X58	Y58	Z58	X59	Y59	Z59	X60	Y60	Z60	X61	Y61	Z61	

1	0	-197.0642700195313	1783.985473632813	-964.6596679687502	-360.7952575683594	1736.303344726563	-1033.788696289063	-376.8072814941407	1736.406372070313	-894.2444458007815	-406.6021118164064	1556.37890625	-952.3934326171877	-396.8897705078126	1223.923583984375	-953.0783691406252	-257.7800903320313	1512.4169921875	-958.801940917969	-335.4473266601563	1546.829467773438	-1118.77978515625	-231.1565856933594	1366.56982421875	-1241.579956054688	-187.5601806640625	1388.844970703125	-1238.354248046875	-171.3025970458985	1334.692626953125	-1256.5302734375	-118.0332412719727	1318.911743164063	-1261.5771484375	-132.853012084961	1261.85888671875	-1205.5625	137.548828125	1251.644897460938	-1217.01953125	127.3714141845703	1212.20068359375	-1283.662475585938	224.3358306884766	1235.095458984375	-1244.771362304688	-317.1636962890626	1550.357788085938	-796.0734863281252	-197.1702728271485	1374.622802734375	-675.4071044921876	-152.4556121826172	1392.1357421875	-681.4353027343751	-139.5042419433594	1335.864868164063	-663.8979492187501	-100.5121231079102	1315.799560546875	-664.7569580078126	-118.1177368164063	1267.953735351563	-723.8096923828126	172.3121948242188	1281.04150390625	-743.0261840820314	153.8279876708985	1235.629638671875	-680.1241455078126	249.4812927246094	1275.994140625	-719.8508300781251	-187.8295135498047	1068.010620117188	-1069.098876953125	-198.7362670898438	1070.08447265625	-815.0977783203127	-387.4984436035157	1140.720336914063	-951.490661621094	-389.1398925781251	1108.42822265625	-980.067810058594	-390.763153076172	1107.5537109375	-923.4433593750002	-283.9107055664063	827.299499511719	-1150.747924804688	-256.9836120605469	746.7453002929689	-1145.222290039063	-209.8378906250001	748.1978759765626	-1137.8681640625	-288.6678771972657	696.2876586914064	-1130.044189453125	-301.1475830078126	541.3273925781251	-1107.389404296875	-273.2445373535157	535.5817871093751	-971.5269775390627	-262.6609191894532	377.3877563476563	-1058.44677734375	-314.1666564941407	332.1476135253907	-1116.405395507813	-274.9611206054688	329.7075805664063	-1090.745727539063	-280.4820251464844	251.8917999267579	-1057.317016601563	-338.9985656738282	115.9903182983399	-1095.6005859375	-307.8525085449219	135.0261840820313	-1005.552062988281	-409.0328979492189	106.2032546997071	-1037.732299804688	-198.2489776611329	57.21941375732423	-1017.15283203125	-189.9137573242188	55.14283752441408	-1066.474853515625	-242.5032653808594	40.43169403076173	-1117.807739257813	-309.1924438476563	767.7397460937501	-743.1824951171876	-277.3099060058594	709.2389526367189	-738.6085815429689	-244.1755371093751	707.5009765625001	-741.4077758789064	-310.6366271972657	634.9553222656251	-758.0422363281251	-330.0172729492188	543.8086547851564	-761.3895263671876	-267.4189758300782	535.5916748046876	-885.9429321289065	-278.2697753906251	434.1491699218751	-758.4481811523439	-353.3376159667969	365.9079284667969	-725.8018798828126	-307.5215148925782	356.6872253417969	-731.6853027343751	-292.7432556152344	304.3184509277344	-751.2262573242189	-355.3546142578126	128.7132110595703	-725.0883789062501	-310.2459716796876	140.3727569580078	-807.772644042969	-414.6163024902345	106.7952117919922	-786.0006103515627	-197.1235809326172	55.43442916870119	-786.7388305664065	-197.8836975097657	53.52816009521486	-738.8458251953126	-250.9576110839844	40.20517730712891	-692.1783447265626	
2	0.005	-197.4508361816407	1784.047241210938	-965.2595825195315	-363.8165283203126	1736.189331054688	-1034.511840820313	-377.2541503906251	1736.386108398438	-894.8596191406252	-406.8854064941407	1556.357421875	-953.0339355468752	-397.0682983398439	1223.873046875	-953.5122680664065	-257.9666442871094	1512.492797851563	-959.3918457031252	-335.4734497070313	1546.79345703125	-1119.160278320313	-230.9141540527344	1367.517333984375	-1242.0185546875	-187.2253570556641	1390.279541015625	-1238.935668945313	-170.3566589355469	1336.329956054688	-1257.207763671875	-117.0831527709961	1320.633544921875	-1262.303466796875	-131.7682800292969	1263.68408203125	-1206.387329101563	139.1943054199219	1255.940795898438	-1217.028076171875	130.8779602050782	1215.8125	-1284.833618164063	225.8450317382813	1239.75732421875	-1245.669311523438	-317.4346008300782	1550.494018554688	-796.9370727539065	-196.3178253173829	1375.699340820313	-676.2956542968751	-152.1172485351563	1393.489013671875	-681.9738769531251	-138.59423828125	1337.137939453125	-664.5814819335939	-99.76985168457034	1317.53515625	-665.1838378906251	-116.6876754760742	1269.5703125	-724.4209594726564	172.9038391113282	1285.1328125	-744.0706176757814	155.6690979003907	1239.467651367188	-681.1307983398439	251.0166320800782	1280.943603515625	-720.8289184570314	-188.0384521484375	1068.009643554688	-1069.658813476563	-198.9216613769532	1070.087524414063	-815.730651855469	-387.6410522460939	1140.701416015625	-952.1502685546877	-388.0513000488282	1108.270385742188	-980.7443847656252	-391.6866455078126	1107.621459960938	-924.144714355469	-283.9710693359376	827.1538696289065	-1151.1123046875	-257.0091857910157	746.7500610351564	-1145.694946289063	-209.8587036132813	748.1535034179689	-1138.261474609375	-288.6465454101563	696.2384643554689	-1130.323974609375	-301.0755310058594	541.3352050781251	-1107.769775390625	-273.2437133789063	535.5701904296876	-971.7784423828127	-262.6978759765626	377.3464965820313	-1058.610107421875	-314.0445556640626	332.1593017578126	-1116.657592773438	-274.9684448242188	329.5690917968751	-1090.9677734375	-280.5245971679688	251.7737579345704	-1057.423706054688	-338.8715515136719	115.745231628418	-1095.677001953125	-307.8669128417969	135.0058288574219	-1005.558044433594	-409.0455627441407	106.1868591308594	-1037.750122070313	-198.2629699707032	57.2300148010254	-1017.16748046875	-189.8326110839844	55.13487625122072	-1066.477661132813	-242.5135345458985	40.41317749023438	-1117.80908203125	-309.2138671875001	767.7872314453126	-743.5457153320314	-277.3923645019532	709.2716064453126	-738.9770507812501	-244.2357025146485	707.5208129882814	-741.7686157226564	-310.6923217773438	635.0034179687501	-758.3623046875001	-330.0445251464844	543.8268432617189	-761.7183837890626	-267.3341979980469	535.5995483398439	-886.216247558594	-278.2380981445313	434.181854248047	-758.7232055664064	-353.3605041503907	365.9850463867188	-725.9502563476564	-307.4487304687501	356.8546447753907	-731.8695068359376	-292.6661987304688	304.3791198730469	-751.3853149414064	-355.3182373046876	128.7397613525391	-725.1255493164064	-310.2306518554688	140.3735656738282	-807.8109130859377	-414.5764465332032	106.8307647705078	-786.0253906250002	-197.1467895507813	55.40820312500001	-786.7752075195315	-197.9032440185547	53.51292419433595	-738.8894042968751	-250.9320526123047	40.27003860473634	-692.1701660156251	
3	0.01	-197.8159332275391	1784.136108398438	-965.859802246094	-364.1134643554688	1736.153076171875	-1035.029541015625	-377.7433776855469	1736.401489257813	-895.4400634765627	-407.1509094238282	1556.331909179688	-953.680114746094	-397.3192749023439	1223.843383789063	-954.1962890625002	-258.1439208984376	1512.542724609375	-959.909362792969	-335.7279357910157	1546.860595703125	-1119.708984375	-229.8414154052735	1368.734741210938	-1242.977416992188	-186.8649597167969	1391.734008789063	-1239.674194335938	-169.4371185302735	1337.791381835938	-1258.229370117188	-116.2222213745117	1322.59423828125	-1263.27197265625	-130.0347137451172	1265.435913085938	-1207.320434570313	140.3680725097657	1259.495727539063	-1217.857177734375	130.941390991211	1219.937866210938	-1285.345336914063	227.5171508789063	1244.497436523438	-1246.529296875	-317.6468811035157	1550.604125976563	-797.6466064453127	-195.6186218261719	1376.740234375	-677.0147094726564	-151.6965942382813	1394.907104492188	-682.5936889648439	-137.6933898925782	1338.713989257813	-665.3010864257814	-98.33599853515628	1319.335205078125	-665.9738159179689	-115.4057693481446	1271.199951171875	-724.9894409179689	174.7415466308594	1288.966918945313	-744.9799804687501	157.1064147949219	1243.37646484375	-682.0759887695314	252.1516265869141	1285.64111328125	-721.9448242187501	-188.2538452148438	1067.978759765625	-1070.217163085938	-199.1537322998047	1070.137573242188	-816.251159667969	-387.8185424804689	1140.701171875	-952.5659790039065	-388.1805419921876	1108.28369140625	-981.3062744140627	-391.0510253906251	1107.43017578125	-924.7119140625002	-284.0487365722657	827.105163574219	-1151.50439453125	-257.1152954101563	746.7318725585939	-1146.072021484375	-209.8890686035157	748.1685791015626	-1138.783447265625	-288.6325073242188	696.1196899414064	-1130.640502929688	-301.0499267578126	541.2121582031251	-1108.164794921875	-273.1936340332032	535.6575317382814	-972.0388793945315	-262.6593627929688	377.3469543457032	-1058.820068359375	-313.9094238281251	332.0796508789063	-1116.853149414063	-274.7658386230469	329.4841918945313	-1091.1376953125	-280.4851379394532	251.7575378417969	-1057.56201171875	-338.9653625488282	115.9363327026367	-1095.665893554688	-307.8170166015626	134.9948120117188	-1005.607238769531	-409.0346679687501	106.1745758056641	-1037.803955078125	-198.2489776611329	57.21941375732423	-1017.15283203125	-189.8651580810547	55.15781021118165	-1066.4990234375	-242.4554138183594	40.39655303955079	-1117.807861328125	-309.2505493164063	767.8470458984376	-743.9367675781251	-277.4271850585938	709.3294677734376	-739.3650512695314	-244.3006439208985	707.6333007812501	-742.0868530273439	-310.7862854003907	635.0270996093751	-758.6543579101564	-330.0121765136719	543.8430175781251	-762.0399169921876	-267.3703308105469	535.5080566406251	-886.414489746094	-278.2204589843751	434.2381896972657	-758.9423217773439	-353.3424987792969	366.0036926269532	-726.0980224609376	-307.4846801757813	356.9018249511719	-732.0101318359376	-292.6246337890626	304.4959411621094	-751.5223999023439	-355.2725524902344	128.837890625	-725.1637573242189	-310.1775512695313	140.3757629394532	-807.8359375000002	-414.5691833496095	106.8583602905274	-786.065368652344	-197.1467895507813	55.40820312500001	-786.7752075195315	-197.8805694580079	53.50772857666017	-738.8571777343751	-250.914535522461	40.29316711425782	-692.2180786132814	
4	0.015	-198.1542968750001	1784.150024414063	-966.3685302734377	-361.6590576171876	1736.369750976563	-1035.5146484375	-378.0608825683594	1736.32373046875	-895.9222412109377	-407.4324645996095	1556.291870117188	-954.2000732421877	-397.5040893554689	1223.81884765625	-954.8452758789065	-258.4454650878907	1512.554443359375	-960.5969238281252	-336.0363769531251	1546.986938476563	-1120.225341796875	-229.3000488281251	1369.742919921875	-1243.698486328125	-186.4205780029297	1393.155639648438	-1240.406005859375	-168.9735565185547	1339.323364257813	-1258.937866210938	-115.2366638183594	1324.391723632813	-1263.977294921875	-129.1231536865235	1267.0087890625	-1208.337768554688	141.5996246337891	1263.218017578125	-1218.816650390625	132.7568054199219	1223.712524414063	-1286.064208984375	228.9581298828126	1249.088745117188	-1247.408081054688	-317.9036254882813	1550.700439453125	-798.2280273437502	-195.1945190429688	1377.587036132813	-677.4566040039064	-151.0333251953125	1396.171508789063	-683.3775634765626	-136.8793029785157	1340.057983398438	-666.0214233398439	-97.52239227294925	1320.912231445313	-666.5078125000001	-114.1222076416016	1272.72265625	-725.3305053710939	175.4295349121094	1292.789794921875	-745.8927001953126	158.8531036376953	1247.103271484375	-682.9679565429689	253.4579010009766	1290.134765625	-723.0784301757814	-188.4146728515625	1067.965087890625	-1070.730102539063	-199.3397216796876	1070.214721679688	-816.8321533203127	-388.0339965820314	1140.649536132813	-953.1186523437502	-388.5139160156251	1108.273193359375	-981.7541503906252	-392.1972045898439	1107.614624023438	-925.1384887695315	-284.1766052246094	827.0902099609377	-1152.0498046875	-257.1998596191407	746.6810302734376	-1146.431762695313	-210.1443176269532	748.1309204101564	-1139.218872070313	-288.6614990234376	695.9956054687501	-1131.206176757813	-301.0214843750001	541.0751953125001	-1108.511596679688	-273.0855407714844	535.7658081054689	-972.3792114257815	-262.6692504882813	377.2906799316407	-1059.02001953125	-313.7356872558594	332.0650329589844	-1116.995727539063	-274.7568054199219	329.3754272460938	-1091.3046875	-280.3931274414063	251.801742553711	-1057.664306640625	-338.9974365234376	115.930778503418	-1095.71875	-307.8544311523438	135.0220642089844	-1005.622497558594	-408.7367553710939	105.9727096557617	-1037.948120117188	-198.2629699707032	57.2300148010254	-1017.16748046875	-189.9117736816407	55.14501953125001	-1066.48046875	-242.5159149169922	40.39261627197266	-1117.812255859375	-309.3404846191407	767.8647460937501	-744.3956298828126	-277.4569396972657	709.3649291992189	-739.7689819335939	-244.4234313964844	707.7382202148439	-742.3924560546876	-310.8108520507813	635.0286865234376	-759.0562133789064	-330.0223999023438	543.8690185546876	-762.3702392578126	-267.3903503417969	535.4869995117189	-886.672790527344	-278.2035217285157	434.2712707519532	-759.1500244140626	-353.3210144042969	366.0632324218751	-726.2985229492189	-307.4857788085938	356.9188842773438	-732.1555175781251	-292.6180419921876	304.5017395019532	-751.6456298828126	-355.2452697753907	128.8375854492188	-725.2276611328126	-310.1586608886719	140.3795776367188	-807.8633422851565	-414.5626831054689	106.8783798217774	-786.0510864257815	-197.1448822021485	55.42560958862306	-786.7910156250002	-197.894760131836	53.49205017089845	-738.9091186523439	-250.9029083251954	40.33007049560548	-692.2558593750001	
